<svg xmlns="http://www.w3.org/2000/svg" xmlns:xlink="http://www.w3.org/1999/xlink" contentStyleType="text/css" height="749px" preserveAspectRatio="none" style="width:1486px;height:749px;background:#FFFFFF;" version="1.1" viewBox="0 0 1486 749" width="1486px" zoomAndPan="magnify"><title>Runtime: User sends a private direct message</title><defs/><g><text fill="#000000" font-family="sans-serif" font-size="14" font-weight="bold" lengthAdjust="spacing" textLength="319.5348" x="579.5665" y="29.9659">Runtime: User sends a private direct message</text><line style="stroke:#181818;stroke-width:0.5;stroke-dasharray:5.0,5.0;" x1="31" x2="31" y1="124.1358" y2="665.4321"/><line style="stroke:#181818;stroke-width:0.5;stroke-dasharray:5.0,5.0;" x1="100.5218" x2="100.5218" y1="124.1358" y2="665.4321"/><line style="stroke:#181818;stroke-width:0.5;stroke-dasharray:5.0,5.0;" x1="328.175" x2="328.175" y1="124.1358" y2="665.4321"/><line style="stroke:#181818;stroke-width:0.5;stroke-dasharray:5.0,5.0;" x1="598.3263" x2="598.3263" y1="124.1358" y2="665.4321"/><line style="stroke:#181818;stroke-width:0.5;stroke-dasharray:5.0,5.0;" x1="1016.6377" x2="1016.6377" y1="124.1358" y2="665.4321"/><line style="stroke:#181818;stroke-width:0.5;stroke-dasharray:5.0,5.0;" x1="1125.5815" x2="1125.5815" y1="124.1358" y2="665.4321"/><line style="stroke:#181818;stroke-width:0.5;stroke-dasharray:5.0,5.0;" x1="1403.7582" x2="1403.7582" y1="124.1358" y2="665.4321"/><text fill="#000000" font-family="sans-serif" font-size="14" lengthAdjust="spacing" textLength="46.5218" x="5" y="120.0339">Sender</text><ellipse cx="31.2609" cy="53.5679" fill="#E2E2F0" rx="8" ry="8" style="stroke:#181818;stroke-width:0.5;"/><path d="M31.2609,61.5679 L31.2609,88.5679 M18.2609,69.5679 L44.2609,69.5679 M31.2609,88.5679 L18.2609,103.5679 M31.2609,88.5679 L44.2609,103.5679 " fill="none" style="stroke:#181818;stroke-width:0.5;"/><text fill="#000000" font-family="sans-serif" font-size="14" lengthAdjust="spacing" textLength="46.5218" x="5" y="679.398">Sender</text><ellipse cx="31.2609" cy="692" fill="#E2E2F0" rx="8" ry="8" style="stroke:#181818;stroke-width:0.5;"/><path d="M31.2609,700 L31.2609,727 M18.2609,708 L44.2609,708 M31.2609,727 L18.2609,742 M31.2609,727 L44.2609,742 " fill="none" style="stroke:#181818;stroke-width:0.5;"/><text fill="#000000" font-family="sans-serif" font-size="14" lengthAdjust="spacing" textLength="60.7598" x="67.5218" y="120.0339">Recipient</text><ellipse cx="100.9017" cy="53.5679" fill="#E2E2F0" rx="8" ry="8" style="stroke:#181818;stroke-width:0.5;"/><path d="M100.9017,61.5679 L100.9017,88.5679 M87.9017,69.5679 L113.9017,69.5679 M100.9017,88.5679 L87.9017,103.5679 M100.9017,88.5679 L113.9017,103.5679 " fill="none" style="stroke:#181818;stroke-width:0.5;"/><text fill="#000000" font-family="sans-serif" font-size="14" lengthAdjust="spacing" textLength="60.7598" x="67.5218" y="679.398">Recipient</text><ellipse cx="100.9017" cy="692" fill="#E2E2F0" rx="8" ry="8" style="stroke:#181818;stroke-width:0.5;"/><path d="M100.9017,700 L100.9017,727 M87.9017,708 L113.9017,708 M100.9017,727 L87.9017,742 M100.9017,727 L113.9017,742 " fill="none" style="stroke:#181818;stroke-width:0.5;"/><rect fill="#E2E2F0" height="33.0679" rx="2.5" ry="2.5" style="stroke:#181818;stroke-width:0.5;" width="96.7957" x="280.175" y="90.0679"/><text fill="#000000" font-family="sans-serif" font-size="14" lengthAdjust="spacing" textLength="82.7957" x="287.175" y="112.0339">API Gateway</text><rect fill="#E2E2F0" height="33.0679" rx="2.5" ry="2.5" style="stroke:#181818;stroke-width:0.5;" width="96.7957" x="280.175" y="664.4321"/><text fill="#000000" font-family="sans-serif" font-size="14" lengthAdjust="spacing" textLength="82.7957" x="287.175" y="686.398">API Gateway</text><rect fill="#E2E2F0" height="33.0679" rx="2.5" ry="2.5" style="stroke:#181818;stroke-width:0.5;" width="135.6875" x="531.3263" y="90.0679"/><text fill="#000000" font-family="sans-serif" font-size="14" lengthAdjust="spacing" textLength="121.6875" x="538.3263" y="112.0339">Messaging Service</text><rect fill="#E2E2F0" height="33.0679" rx="2.5" ry="2.5" style="stroke:#181818;stroke-width:0.5;" width="135.6875" x="531.3263" y="664.4321"/><text fill="#000000" font-family="sans-serif" font-size="14" lengthAdjust="spacing" textLength="121.6875" x="538.3263" y="686.398">Messaging Service</text><rect fill="#E2E2F0" height="33.0679" rx="2.5" ry="2.5" style="stroke:#181818;stroke-width:0.5;" width="90.9437" x="971.6377" y="90.0679"/><text fill="#000000" font-family="sans-serif" font-size="14" lengthAdjust="spacing" textLength="76.9437" x="978.6377" y="112.0339">PostgreSQL</text><rect fill="#E2E2F0" height="33.0679" rx="2.5" ry="2.5" style="stroke:#181818;stroke-width:0.5;" width="90.9437" x="971.6377" y="664.4321"/><text fill="#000000" font-family="sans-serif" font-size="14" lengthAdjust="spacing" textLength="76.9437" x="978.6377" y="686.398">PostgreSQL</text><rect fill="#E2E2F0" height="33.0679" rx="2.5" ry="2.5" style="stroke:#181818;stroke-width:0.5;" width="107.2397" x="1072.5815" y="90.0679"/><text fill="#000000" font-family="sans-serif" font-size="14" lengthAdjust="spacing" textLength="93.2397" x="1079.5815" y="112.0339">Redis Streams</text><rect fill="#E2E2F0" height="33.0679" rx="2.5" ry="2.5" style="stroke:#181818;stroke-width:0.5;" width="107.2397" x="1072.5815" y="664.4321"/><text fill="#000000" font-family="sans-serif" font-size="14" lengthAdjust="spacing" textLength="93.2397" x="1079.5815" y="686.398">Redis Streams</text><rect fill="#E2E2F0" height="33.0679" rx="2.5" ry="2.5" style="stroke:#181818;stroke-width:0.5;" width="140.9095" x="1333.7582" y="90.0679"/><text fill="#000000" font-family="sans-serif" font-size="14" lengthAdjust="spacing" textLength="126.9095" x="1340.7582" y="112.0339">Notification Service</text><rect fill="#E2E2F0" height="33.0679" rx="2.5" ry="2.5" style="stroke:#181818;stroke-width:0.5;" width="140.9095" x="1333.7582" y="664.4321"/><text fill="#000000" font-family="sans-serif" font-size="14" lengthAdjust="spacing" textLength="126.9095" x="1340.7582" y="686.398">Notification Service</text><polygon fill="#181818" points="316.5729,153.8419,326.5729,157.8419,316.5729,161.8419,320.5729,157.8419" style="stroke:#181818;stroke-width:1;"/><line style="stroke:#181818;stroke-width:1;" x1="31.2609" x2="322.5729" y1="157.8419" y2="157.8419"/><text fill="#000000" font-family="sans-serif" font-size="13" lengthAdjust="spacing" textLength="263.2762" x="38.2609" y="152.0328">POST /messages {to: recipient_id, text: "..."}</text><polygon fill="#181818" points="587.1701,185.5479,597.1701,189.5479,587.1701,193.5479,591.1701,189.5479" style="stroke:#181818;stroke-width:1;"/><line style="stroke:#181818;stroke-width:1;" x1="328.5729" x2="593.1701" y1="189.5479" y2="189.5479"/><text fill="#000000" font-family="sans-serif" font-size="13" lengthAdjust="spacing" textLength="230.8672" x="335.5729" y="183.7389">send_dm(sender_id, recipient_id, text)</text><polygon fill="#181818" points="1005.1096,217.2539,1015.1096,221.2539,1005.1096,225.2539,1009.1096,221.2539" style="stroke:#181818;stroke-width:1;"/><line style="stroke:#181818;stroke-width:1;" x1="599.1701" x2="1011.1096" y1="221.2539" y2="221.2539"/><text fill="#000000" font-family="sans-serif" font-size="13" lengthAdjust="spacing" textLength="321.9193" x="606.1701" y="215.4449">INSERT INTO messages (sender_id, recipient_id, text)</text><polygon fill="#181818" points="610.1701,248.9599,600.1701,252.9599,610.1701,256.9599,606.1701,252.9599" style="stroke:#181818;stroke-width:1;"/><line style="stroke:#181818;stroke-width:1;stroke-dasharray:2.0,2.0;" x1="604.1701" x2="1016.1096" y1="252.9599" y2="252.9599"/><text fill="#000000" font-family="sans-serif" font-size="13" lengthAdjust="spacing" textLength="71.6821" x="616.1701" y="247.1509">message_id</text><polygon fill="#181818" points="1114.2013,280.6659,1124.2013,284.6659,1114.2013,288.6659,1118.2013,284.6659" style="stroke:#181818;stroke-width:1;"/><line style="stroke:#181818;stroke-width:1;" x1="599.1701" x2="1120.2013" y1="284.6659" y2="284.6659"/><text fill="#000000" font-family="sans-serif" font-size="13" lengthAdjust="spacing" textLength="270.8032" x="606.1701" y="278.8569">XADD dm.created {message_id, recipient_id}</text><polygon fill="#181818" points="339.5729,312.3719,329.5729,316.3719,339.5729,320.3719,335.5729,316.3719" style="stroke:#181818;stroke-width:1;"/><line style="stroke:#181818;stroke-width:1;stroke-dasharray:2.0,2.0;" x1="333.5729" x2="598.1701" y1="316.3719" y2="316.3719"/><text fill="#000000" font-family="sans-serif" font-size="13" lengthAdjust="spacing" textLength="73.918" x="345.5729" y="310.5629">201 Created</text><polygon fill="#181818" points="42.2609,344.0779,32.2609,348.0779,42.2609,352.0779,38.2609,348.0779" style="stroke:#181818;stroke-width:1;"/><line style="stroke:#181818;stroke-width:1;stroke-dasharray:2.0,2.0;" x1="36.2609" x2="327.5729" y1="348.0779" y2="348.0779"/><text fill="#000000" font-family="sans-serif" font-size="13" lengthAdjust="spacing" textLength="73.918" x="48.2609" y="342.2689">201 Created</text><rect fill="#EEEEEE" height="3" style="stroke:#EEEEEE;stroke-width:1;" width="1479.6677" x="0" y="377.931"/><line style="stroke:#000000;stroke-width:1;" x1="0" x2="1479.6677" y1="377.931" y2="377.931"/><line style="stroke:#000000;stroke-width:1;" x1="0" x2="1479.6677" y1="380.931" y2="380.931"/><rect fill="#EEEEEE" height="25.706" style="stroke:#000000;stroke-width:2;" width="55.431" x="712.1184" y="366.0779"/><text fill="#000000" font-family="sans-serif" font-size="13" font-weight="bold" lengthAdjust="spacing" textLength="38.051" x="718.1184" y="383.975">Async</text><polygon fill="#181818" points="1392.213,421.49,1402.213,425.49,1392.213,429.49,1396.213,425.49" style="stroke:#181818;stroke-width:1;"/><line style="stroke:#181818;stroke-width:1;" x1="1126.2013" x2="1398.213" y1="425.49" y2="425.49"/><text fill="#000000" font-family="sans-serif" font-size="13" lengthAdjust="spacing" textLength="113.9971" x="1133.2013" y="419.681">XREAD dm.created</text><polygon fill="#181818" points="1028.1096,453.196,1018.1096,457.196,1028.1096,461.196,1024.1096,457.196" style="stroke:#181818;stroke-width:1;"/><line style="stroke:#181818;stroke-width:1;" x1="1022.1096" x2="1403.213" y1="457.196" y2="457.196"/><text fill="#000000" font-family="sans-serif" font-size="13" lengthAdjust="spacing" textLength="363.1034" x="1034.1096" y="451.387">INSERT INTO notifications (user_id=recipient_id, type="dm")</text><polygon fill="#181818" points="316.5729,484.902,326.5729,488.902,316.5729,492.902,320.5729,488.902" style="stroke:#181818;stroke-width:1;"/><line style="stroke:#181818;stroke-width:1;" x1="100.9017" x2="322.5729" y1="488.902" y2="488.902"/><text fill="#000000" font-family="sans-serif" font-size="13" lengthAdjust="spacing" textLength="203.6712" x="107.9017" y="483.093">GET /messages/{conversation_id}</text><polygon fill="#181818" points="587.1701,516.608,597.1701,520.608,587.1701,524.608,591.1701,520.608" style="stroke:#181818;stroke-width:1;"/><line style="stroke:#181818;stroke-width:1;" x1="328.5729" x2="593.1701" y1="520.608" y2="520.608"/><text fill="#000000" font-family="sans-serif" font-size="13" lengthAdjust="spacing" textLength="246.5972" x="335.5729" y="514.799">get_conversation(user_id, other_user_id)</text><polygon fill="#181818" points="1005.1096,548.314,1015.1096,552.314,1005.1096,556.314,1009.1096,552.314" style="stroke:#181818;stroke-width:1;"/><line style="stroke:#181818;stroke-width:1;" x1="599.1701" x2="1011.1096" y1="552.314" y2="552.314"/><text fill="#000000" font-family="sans-serif" font-size="13" lengthAdjust="spacing" textLength="393.9395" x="606.1701" y="546.505">SELECT * FROM messages WHERE (sender_id, recipient_id) IN (...)</text><polygon fill="#181818" points="610.1701,580.0201,600.1701,584.0201,610.1701,588.0201,606.1701,584.0201" style="stroke:#181818;stroke-width:1;"/><line style="stroke:#181818;stroke-width:1;stroke-dasharray:2.0,2.0;" x1="604.1701" x2="1016.1096" y1="584.0201" y2="584.0201"/><text fill="#000000" font-family="sans-serif" font-size="13" lengthAdjust="spacing" textLength="60.788" x="616.1701" y="578.2111">messages</text><polygon fill="#181818" points="339.5729,611.7261,329.5729,615.7261,339.5729,619.7261,335.5729,615.7261" style="stroke:#181818;stroke-width:1;"/><line style="stroke:#181818;stroke-width:1;stroke-dasharray:2.0,2.0;" x1="333.5729" x2="598.1701" y1="615.7261" y2="615.7261"/><text fill="#000000" font-family="sans-serif" font-size="13" lengthAdjust="spacing" textLength="60.788" x="345.5729" y="609.9171">messages</text><polygon fill="#181818" points="111.9017,643.4321,101.9017,647.4321,111.9017,651.4321,107.9017,647.4321" style="stroke:#181818;stroke-width:1;"/><line style="stroke:#181818;stroke-width:1;stroke-dasharray:2.0,2.0;" x1="105.9017" x2="327.5729" y1="647.4321" y2="647.4321"/><text fill="#000000" font-family="sans-serif" font-size="13" lengthAdjust="spacing" textLength="116.6101" x="117.9017" y="641.6231">200 OK [messages]</text><!--SRC=[XL9TJ-Cm47pthrZbYPwWV3nM2b95Gmz1QKYAG4AeifAzdAMBKzbBZwhgVsVZVBG6JlSKspipkpCRKlG78NdJf4eSmQD50nPrRa72ogYr98HS6Sm8IhHM5YY4pAWoa38AJNj9C5ChXPh4IXfIV96Q81Z7Dp1bYRzo4u2qm7SVC7EQIXSiPzOgGmURsSA7nPMbmc3wSEVgyTGl9vWh2oaPbALrYFRim-uhKhzK9abLskld2a8qZk3aifuJHX3FqmMSjhOjRAaQWUcCBbL-38JlD89WE1m6Er6JcCl3CxVES9cNHzPfEl1Nwa3KOER4KwRStATHik3FOWvzq_y9CFEaRzgokDm9jpbmxNaycK1U3ZD-8CnXkmVxohk6swTmSNOELmsfiLZBDadvHH66CBORdK4OSfXjPqQxUEiHacXyE8De2j_vrmUhuX3Uh8iW_9J0PeLXa9V1G8Z-1zolRneTREzqcrLwZSOwIMVJsrU1j3n4T2sFeQBVV6gl_iRIw2wwMi0Fk4xci_tEddv6IVJFpGtO8HpnB_Fzykod-FldBlkzqph-CvZVmai7UXKV]--></g></svg>