<svg xmlns="http://www.w3.org/2000/svg" xmlns:xlink="http://www.w3.org/1999/xlink" contentStyleType="text/css" height="730px" preserveAspectRatio="none" style="width:1605px;height:730px;background:#FFFFFF;" version="1.1" viewBox="0 0 1605 730" width="1605px" zoomAndPan="magnify"><title>Runtime: User publishes a post with @mention</title><defs/><g><text fill="#000000" font-family="sans-serif" font-size="14" font-weight="bold" lengthAdjust="spacing" textLength="327.3888" x="635.2017" y="29.9659">Runtime: User publishes a post with @mention</text><line style="stroke:#181818;stroke-width:0.5;stroke-dasharray:5.0,5.0;" x1="23" x2="23" y1="124.1358" y2="646.7261"/><line style="stroke:#181818;stroke-width:0.5;stroke-dasharray:5.0,5.0;" x1="252.5193" x2="252.5193" y1="124.1358" y2="646.7261"/><line style="stroke:#181818;stroke-width:0.5;stroke-dasharray:5.0,5.0;" x1="476.1664" x2="476.1664" y1="124.1358" y2="646.7261"/><line style="stroke:#181818;stroke-width:0.5;stroke-dasharray:5.0,5.0;" x1="683.1106" x2="683.1106" y1="124.1358" y2="646.7261"/><line style="stroke:#181818;stroke-width:0.5;stroke-dasharray:5.0,5.0;" x1="852.0827" x2="852.0827" y1="124.1358" y2="646.7261"/><line style="stroke:#181818;stroke-width:0.5;stroke-dasharray:5.0,5.0;" x1="1003.2049" x2="1003.2049" y1="124.1358" y2="646.7261"/><line style="stroke:#181818;stroke-width:0.5;stroke-dasharray:5.0,5.0;" x1="1378.4332" x2="1378.4332" y1="124.1358" y2="646.7261"/><line style="stroke:#181818;stroke-width:0.5;stroke-dasharray:5.0,5.0;" x1="1522.8827" x2="1522.8827" y1="124.1358" y2="646.7261"/><text fill="#000000" font-family="sans-serif" font-size="14" lengthAdjust="spacing" textLength="30.6179" x="5" y="120.0339">User</text><ellipse cx="23.3089" cy="53.5679" fill="#E2E2F0" rx="8" ry="8" style="stroke:#181818;stroke-width:0.5;"/><path d="M23.3089,61.5679 L23.3089,88.5679 M10.3089,69.5679 L36.3089,69.5679 M23.3089,88.5679 L10.3089,103.5679 M23.3089,88.5679 L36.3089,103.5679 " fill="none" style="stroke:#181818;stroke-width:0.5;"/><text fill="#000000" font-family="sans-serif" font-size="14" lengthAdjust="spacing" textLength="30.6179" x="5" y="660.692">User</text><ellipse cx="23.3089" cy="673.294" fill="#E2E2F0" rx="8" ry="8" style="stroke:#181818;stroke-width:0.5;"/><path d="M23.3089,681.294 L23.3089,708.294 M10.3089,689.294 L36.3089,689.294 M23.3089,708.294 L10.3089,723.294 M23.3089,708.294 L36.3089,723.294 " fill="none" style="stroke:#181818;stroke-width:0.5;"/><rect fill="#E2E2F0" height="33.0679" rx="2.5" ry="2.5" style="stroke:#181818;stroke-width:0.5;" width="96.7957" x="204.5193" y="90.0679"/><text fill="#000000" font-family="sans-serif" font-size="14" lengthAdjust="spacing" textLength="82.7957" x="211.5193" y="112.0339">API Gateway</text><rect fill="#E2E2F0" height="33.0679" rx="2.5" ry="2.5" style="stroke:#181818;stroke-width:0.5;" width="96.7957" x="204.5193" y="645.7261"/><text fill="#000000" font-family="sans-serif" font-size="14" lengthAdjust="spacing" textLength="82.7957" x="211.5193" y="667.692">API Gateway</text><rect fill="#E2E2F0" height="33.0679" rx="2.5" ry="2.5" style="stroke:#181818;stroke-width:0.5;" width="93.0437" x="430.1664" y="90.0679"/><text fill="#000000" font-family="sans-serif" font-size="14" lengthAdjust="spacing" textLength="79.0437" x="437.1664" y="112.0339">Post Service</text><rect fill="#E2E2F0" height="33.0679" rx="2.5" ry="2.5" style="stroke:#181818;stroke-width:0.5;" width="93.0437" x="430.1664" y="645.7261"/><text fill="#000000" font-family="sans-serif" font-size="14" lengthAdjust="spacing" textLength="79.0437" x="437.1664" y="667.692">Post Service</text><rect fill="#E2E2F0" height="33.0679" rx="2.5" ry="2.5" style="stroke:#181818;stroke-width:0.5;" width="90.9437" x="638.1106" y="90.0679"/><text fill="#000000" font-family="sans-serif" font-size="14" lengthAdjust="spacing" textLength="76.9437" x="645.1106" y="112.0339">PostgreSQL</text><rect fill="#E2E2F0" height="33.0679" rx="2.5" ry="2.5" style="stroke:#181818;stroke-width:0.5;" width="90.9437" x="638.1106" y="645.7261"/><text fill="#000000" font-family="sans-serif" font-size="14" lengthAdjust="spacing" textLength="76.9437" x="645.1106" y="667.692">PostgreSQL</text><rect fill="#E2E2F0" height="33.0679" rx="2.5" ry="2.5" style="stroke:#181818;stroke-width:0.5;" width="107.2397" x="799.0827" y="90.0679"/><text fill="#000000" font-family="sans-serif" font-size="14" lengthAdjust="spacing" textLength="93.2397" x="806.0827" y="112.0339">Redis Streams</text><rect fill="#E2E2F0" height="33.0679" rx="2.5" ry="2.5" style="stroke:#181818;stroke-width:0.5;" width="107.2397" x="799.0827" y="645.7261"/><text fill="#000000" font-family="sans-serif" font-size="14" lengthAdjust="spacing" textLength="93.2397" x="806.0827" y="667.692">Redis Streams</text><rect fill="#E2E2F0" height="52.1358" rx="2.5" ry="2.5" style="stroke:#181818;stroke-width:0.5;" width="104.4116" x="951.2049" y="71"/><text fill="#000000" font-family="sans-serif" font-size="14" lengthAdjust="spacing" textLength="89.3477" x="958.7369" y="92.9659">Feed Updater</text><text fill="#000000" font-family="sans-serif" font-size="14" lengthAdjust="spacing" textLength="90.4116" x="958.2049" y="112.0339">(Feed Service)</text><rect fill="#E2E2F0" height="52.1358" rx="2.5" ry="2.5" style="stroke:#181818;stroke-width:0.5;" width="104.4116" x="951.2049" y="645.7261"/><text fill="#000000" font-family="sans-serif" font-size="14" lengthAdjust="spacing" textLength="89.3477" x="958.7369" y="667.692">Feed Updater</text><text fill="#000000" font-family="sans-serif" font-size="14" lengthAdjust="spacing" textLength="90.4116" x="958.2049" y="686.7599">(Feed Service)</text><rect fill="#E2E2F0" height="33.0679" rx="2.5" ry="2.5" style="stroke:#181818;stroke-width:0.5;" width="128.4495" x="1314.4332" y="90.0679"/><text fill="#000000" font-family="sans-serif" font-size="14" lengthAdjust="spacing" textLength="114.4495" x="1321.4332" y="112.0339">Redis Feed Cache</text><rect fill="#E2E2F0" height="33.0679" rx="2.5" ry="2.5" style="stroke:#181818;stroke-width:0.5;" width="128.4495" x="1314.4332" y="645.7261"/><text fill="#000000" font-family="sans-serif" font-size="14" lengthAdjust="spacing" textLength="114.4495" x="1321.4332" y="667.692">Redis Feed Cache</text><rect fill="#E2E2F0" height="33.0679" rx="2.5" ry="2.5" style="stroke:#181818;stroke-width:0.5;" width="140.9095" x="1452.8827" y="90.0679"/><text fill="#000000" font-family="sans-serif" font-size="14" lengthAdjust="spacing" textLength="126.9095" x="1459.8827" y="112.0339">Notification Service</text><rect fill="#E2E2F0" height="33.0679" rx="2.5" ry="2.5" style="stroke:#181818;stroke-width:0.5;" width="140.9095" x="1452.8827" y="645.7261"/><text fill="#000000" font-family="sans-serif" font-size="14" lengthAdjust="spacing" textLength="126.9095" x="1459.8827" y="667.692">Notification Service</text><polygon fill="#181818" points="240.9171,153.8419,250.9171,157.8419,240.9171,161.8419,244.9171,157.8419" style="stroke:#181818;stroke-width:1;"/><line style="stroke:#181818;stroke-width:1;" x1="23.3089" x2="246.9171" y1="157.8419" y2="157.8419"/><text fill="#000000" font-family="sans-serif" font-size="13" lengthAdjust="spacing" textLength="205.6082" x="30.3089" y="152.0328">POST /posts {text: "Hello @alice!"}</text><polygon fill="#181818" points="464.6883,185.5479,474.6883,189.5479,464.6883,193.5479,468.6883,189.5479" style="stroke:#181818;stroke-width:1;"/><line style="stroke:#181818;stroke-width:1;" x1="252.9171" x2="470.6883" y1="189.5479" y2="189.5479"/><text fill="#000000" font-family="sans-serif" font-size="13" lengthAdjust="spacing" textLength="141.6612" x="259.9171" y="183.7389">publish(author_id, text)</text><line style="stroke:#181818;stroke-width:1;" x1="476.6883" x2="518.6883" y1="221.2539" y2="221.2539"/><line style="stroke:#181818;stroke-width:1;" x1="518.6883" x2="518.6883" y1="221.2539" y2="234.2539"/><line style="stroke:#181818;stroke-width:1;" x1="477.6883" x2="518.6883" y1="234.2539" y2="234.2539"/><polygon fill="#181818" points="487.6883,230.2539,477.6883,234.2539,487.6883,238.2539,483.6883,234.2539" style="stroke:#181818;stroke-width:1;"/><text fill="#000000" font-family="sans-serif" font-size="13" lengthAdjust="spacing" textLength="192.8942" x="483.6883" y="215.4449">parse_mentions(text) &#8594; ["alice"]</text><polygon fill="#181818" points="671.5825,261.9599,681.5825,265.9599,671.5825,269.9599,675.5825,265.9599" style="stroke:#181818;stroke-width:1;"/><line style="stroke:#181818;stroke-width:1;" x1="476.6883" x2="677.5825" y1="265.9599" y2="265.9599"/><text fill="#000000" font-family="sans-serif" font-size="13" lengthAdjust="spacing" textLength="115.4011" x="483.6883" y="260.1509">INSERT INTO posts</text><polygon fill="#181818" points="487.6883,293.6659,477.6883,297.6659,487.6883,301.6659,483.6883,297.6659" style="stroke:#181818;stroke-width:1;"/><line style="stroke:#181818;stroke-width:1;stroke-dasharray:2.0,2.0;" x1="481.6883" x2="682.5825" y1="297.6659" y2="297.6659"/><text fill="#000000" font-family="sans-serif" font-size="13" lengthAdjust="spacing" textLength="43.901" x="493.6883" y="291.8569">post_id</text><polygon fill="#181818" points="840.7025,325.3719,850.7025,329.3719,840.7025,333.3719,844.7025,329.3719" style="stroke:#181818;stroke-width:1;"/><line style="stroke:#181818;stroke-width:1;" x1="476.6883" x2="846.7025" y1="329.3719" y2="329.3719"/><text fill="#000000" font-family="sans-serif" font-size="13" lengthAdjust="spacing" textLength="352.0143" x="483.6883" y="323.5629">XADD post.created {post_id, author_id, mentions:["alice"]}</text><polygon fill="#181818" points="263.9171,357.0779,253.9171,361.0779,263.9171,365.0779,259.9171,361.0779" style="stroke:#181818;stroke-width:1;"/><line style="stroke:#181818;stroke-width:1;stroke-dasharray:2.0,2.0;" x1="257.9171" x2="475.6883" y1="361.0779" y2="361.0779"/><text fill="#000000" font-family="sans-serif" font-size="13" lengthAdjust="spacing" textLength="199.7712" x="269.9171" y="355.2689">201 Created {post_id, permalink}</text><polygon fill="#181818" points="34.3089,388.784,24.3089,392.784,34.3089,396.784,30.3089,392.784" style="stroke:#181818;stroke-width:1;"/><line style="stroke:#181818;stroke-width:1;stroke-dasharray:2.0,2.0;" x1="28.3089" x2="251.9171" y1="392.784" y2="392.784"/><text fill="#000000" font-family="sans-serif" font-size="13" lengthAdjust="spacing" textLength="73.918" x="40.3089" y="386.975">201 Created</text><rect fill="#EEEEEE" height="3" style="stroke:#EEEEEE;stroke-width:1;" width="1598.7922" x="0" y="422.637"/><line style="stroke:#000000;stroke-width:1;" x1="0" x2="1598.7922" y1="422.637" y2="422.637"/><line style="stroke:#000000;stroke-width:1;" x1="0" x2="1598.7922" y1="425.637" y2="425.637"/><rect fill="#EEEEEE" height="25.706" style="stroke:#000000;stroke-width:2;" width="145.9371" x="726.4276" y="410.784"/><text fill="#000000" font-family="sans-serif" font-size="13" font-weight="bold" lengthAdjust="spacing" textLength="128.5571" x="732.4276" y="428.681">Async (background)</text><polygon fill="#181818" points="991.4108,466.196,1001.4108,470.196,991.4108,474.196,995.4108,470.196" style="stroke:#181818;stroke-width:1;"/><line style="stroke:#181818;stroke-width:1;" x1="852.7025" x2="997.4108" y1="470.196" y2="470.196"/><text fill="#000000" font-family="sans-serif" font-size="13" lengthAdjust="spacing" textLength="120.6271" x="859.7025" y="464.387">XREAD post.created</text><polygon fill="#181818" points="694.5825,497.902,684.5825,501.902,694.5825,505.902,690.5825,501.902" style="stroke:#181818;stroke-width:1;"/><line style="stroke:#181818;stroke-width:1;" x1="688.5825" x2="1002.4108" y1="501.902" y2="501.902"/><text fill="#000000" font-family="sans-serif" font-size="13" lengthAdjust="spacing" textLength="295.8283" x="700.5825" y="496.093">SELECT follower_ids WHERE followee = author_id</text><polygon fill="#181818" points="991.4108,529.608,1001.4108,533.608,991.4108,537.608,995.4108,533.608" style="stroke:#181818;stroke-width:1;"/><line style="stroke:#181818;stroke-width:1;stroke-dasharray:2.0,2.0;" x1="683.5825" x2="997.4108" y1="533.608" y2="533.608"/><text fill="#000000" font-family="sans-serif" font-size="13" lengthAdjust="spacing" textLength="81.7311" x="690.5825" y="527.799">[follower_ids]</text><polygon fill="#181818" points="1366.658,561.314,1376.658,565.314,1366.658,569.314,1370.658,565.314" style="stroke:#181818;stroke-width:1;"/><line style="stroke:#181818;stroke-width:1;" x1="1003.4108" x2="1372.658" y1="565.314" y2="565.314"/><text fill="#000000" font-family="sans-serif" font-size="13" lengthAdjust="spacing" textLength="351.2472" x="1010.4108" y="559.505">ZADD feed:{follower_id} &lt;ts&gt; &lt;post_id&gt; (for each follower)</text><polygon fill="#181818" points="1511.3375,593.0201,1521.3375,597.0201,1511.3375,601.0201,1515.3375,597.0201" style="stroke:#181818;stroke-width:1;"/><line style="stroke:#181818;stroke-width:1;" x1="852.7025" x2="1517.3375" y1="597.0201" y2="597.0201"/><text fill="#000000" font-family="sans-serif" font-size="13" lengthAdjust="spacing" textLength="120.6271" x="859.7025" y="591.2111">XREAD post.created</text><polygon fill="#181818" points="694.5825,624.7261,684.5825,628.7261,694.5825,632.7261,690.5825,628.7261" style="stroke:#181818;stroke-width:1;"/><line style="stroke:#181818;stroke-width:1;" x1="688.5825" x2="1522.3375" y1="628.7261" y2="628.7261"/><text fill="#000000" font-family="sans-serif" font-size="13" lengthAdjust="spacing" textLength="412.5424" x="700.5825" y="622.9171">INSERT INTO notifications (user_id="alice", type="mention", post_id)</text><!--SRC=[RPF1Jjj048Rl-nHJdsm9MkZHmX5HS0CIWjGEQbMAq69Fo0h7jdRN3L6KAm_08_P9EhkiZLroSdRc-sTc_zbeeGk4f2crM648DmebrCr38TGI5N2eAwLXBVGIJbT8K5KonZDTIOkocaijCb7pKeCtdbt0b6jSyuq7N06TXy3C54jH_X4PMi84FYAF4jFlbs_0T9XEC1SAKYsHhvGbtEyXzWqnXviwfs7axzAtHzSti2eJSVbz3QnWmhCbThGz3TchIek5oBXnPN0jcs3CcdauCZv02BFhT0vVZ9yAjXgVTGZUEHP51QUy8EKdRySCIGBhKzZkmUUDNbRoNkG7O7G1i_aUnwN2UxSUvLi6_hwymgrdAtjtxuefyHTNQPpCwJE_jljLZCA7lNhqeMwTo5bCcP_ZipER_fnHI9D9MmSVG6_ATfIm6s3dYdLkV3qwXic76ZNA5IdA9sS5uTR40SzO5C5ORSeC_0UUFJtAgYdp0AA8iNPK4lPMR2PFul5mTDO7MclI-3AUp65HqLxMQ6wZuCTvdCHj225wlsdhsx3LRLzzzt-RxYqH-SlOkQ10kErfTd2YrGXEd2iZy1VqTqFIT7C5WvlQvxR_Zc-fVOilUuzNWTyespjo2wENjganyjmcwUoc2TW_]--></g></svg>